<?xml version="1.0" encoding="UTF-8" standalone="no"?>
<svg viewBox="0 0 16 16" width="64" height="64" xmlns="http://www.w3.org/2000/svg">
  <style>
      .pixart2svg {
        color-interpolation: linearRGBA;
        shape-rendering: geometricPrecision;
      }
    @media (min-width: 32px) and (min-height: 32px) {
      /* Disable anti-aliasing when zoom level > 200%.
         However, there is currently no way to completely eliminate edge artifacts.
         See also: https://bugs.webkit.org/show_bug.cgi?id=35211 */
      .pixart2svg {
        shape-rendering: crispEdges;
      }
    }
  </style>
  <g class="pixart2svg">
    <path fill="#00000000" d="M 0,0 H 6 V 1 H 4 V 2 H 3 V 3 H 2 V 4 H 1 V 6 H 0 z"/>
    <rect fill="#d9e8d7" x="4" y="1" width="2" height="1" />
    <rect fill="#d9e8d7" x="3" y="2" width="1" height="1" />
    <rect fill="#d9e8d7" x="2" y="3" width="1" height="1" />
    <rect fill="#d9e8d7" x="1" y="4" width="1" height="1" />
    <rect fill="#d9e8d7" x="6" y="0" width="4" height="1" />
    <rect fill="#112f3a" x="4" y="2" width="1" height="1" />
    <rect fill="#0b0618" x="3" y="3" width="1" height="1" />
    <rect fill="#112f3a" x="2" y="4" width="1" height="1" />
    <rect fill="#76a695" x="1" y="5" width="1" height="1" />
    <rect fill="#d9e8d7" x="0" y="6" width="1" height="1" />
    <rect fill="#0b0618" x="6" y="1" width="1" height="1" />
    <rect fill="#0b0618" x="5" y="2" width="1" height="1" />
    <rect fill="#387a5b" x="4" y="3" width="1" height="1" />
    <rect fill="#387a5b" x="3" y="4" width="1" height="1" />
    <rect fill="#0b0618" x="2" y="5" width="1" height="1" />
    <rect fill="#0b0618" x="1" y="6" width="1" height="4" />
    <rect fill="#76a695" x="0" y="7" width="1" height="3" />
    <rect fill="#112f3a" x="7" y="1" width="3" height="1" />
    <rect fill="#76a695" x="6" y="2" width="1" height="1" />
    <rect fill="#76a695" x="5" y="3" width="1" height="1" />
    <rect fill="#76a695" x="4" y="4" width="1" height="1" />
    <rect fill="#76a695" x="3" y="5" width="1" height="3" />
    <rect fill="#387a5b" x="2" y="6" width="1" height="2" />
    <path fill="#d9e8d7" d="M 7,2 H 9 V 3 H 11 V 4 H 12 V 5 H 13 V 7 H 14 V 9 H 13 V 10 H 12 V 11 H 6 V 10 H 5 V 9 H 4 V 5 H 5 V 4 H 6 V 3 H 7 z"/>
    <path fill="#00000000" d="M 10,0 H 16 V 6 H 15 V 4 H 14 V 3 H 13 V 2 H 12 V 1 H 10 z"/>
    <rect fill="#215a5a" x="2" y="8" width="1" height="1" />
    <path fill="#00000000" d="M 0,10 H 1 V 12 H 2 V 13 H 3 V 14 H 4 V 15 H 6 V 16 H 0 z"/>
    <rect fill="#d9e8d7" x="10" y="1" width="2" height="1" />
    <rect fill="#76a695" x="9" y="2" width="1" height="1" />
    <rect fill="#387a5b" x="3" y="8" width="1" height="1" />
    <rect fill="#387a5b" x="2" y="9" width="1" height="1" />
    <rect fill="#76a695" x="1" y="10" width="1" height="2" />
    <rect fill="#0b0618" x="10" y="2" width="1" height="1" />
    <rect fill="#215a5a" x="7" y="5" width="1" height="1" />
    <rect fill="#215a5a" x="6" y="6" width="1" height="1" />
    <rect fill="#215a5a" x="3" y="9" width="1" height="1" />
    <rect fill="#0b0618" x="2" y="10" width="1" height="2" />
    <rect fill="#112f3a" x="11" y="2" width="1" height="1" />
    <path fill="#090a0e" d="M 8,5 H 9 V 6 H 10 V 8 H 9 V 10 H 7 V 9 H 6 V 7 H 7 V 6 H 8 z"/>
    <rect fill="#76a695" x="4" y="9" width="1" height="1" />
    <path fill="#387a5b" d="M 3,10 H 5 V 11 H 4 V 12 H 3 z"/>
    <rect fill="#d9e8d7" x="12" y="2" width="1" height="1" />
    <rect fill="#76a695" x="11" y="3" width="1" height="1" />
    <rect fill="#76a695" x="2" y="12" width="1" height="1" />
    <rect fill="#0b0618" x="12" y="3" width="1" height="1" />
    <rect fill="#76a695" x="5" y="10" width="1" height="1" />
    <rect fill="#215a5a" x="4" y="11" width="1" height="2" />
    <rect fill="#0b0618" x="3" y="12" width="1" height="1" />
    <rect fill="#d9e8d7" x="13" y="3" width="1" height="1" />
    <rect fill="#76a695" x="12" y="4" width="1" height="1" />
    <rect fill="#387a5b" x="5" y="11" width="1" height="1" />
    <rect fill="#76a695" x="3" y="13" width="1" height="1" />
    <rect fill="#112f3a" x="13" y="4" width="1" height="1" />
    <rect fill="#215a5a" x="9" y="8" width="1" height="1" />
    <rect fill="#76a695" x="6" y="11" width="6" height="1" />
    <rect fill="#112f3a" x="5" y="12" width="1" height="1" />
    <rect fill="#0b0618" x="4" y="13" width="2" height="1" />
    <rect fill="#d9e8d7" x="14" y="4" width="1" height="2" />
    <rect fill="#0b0618" x="13" y="5" width="1" height="1" />
    <rect fill="#215a5a" x="6" y="12" width="1" height="1" />
    <rect fill="#76a695" x="4" y="14" width="2" height="1" />
    <rect fill="#76a695" x="13" y="6" width="1" height="1" />
    <rect fill="#387a5b" x="7" y="12" width="4" height="1" />
    <rect fill="#112f3a" x="6" y="13" width="2" height="1" />
    <rect fill="#112f3a" x="14" y="6" width="1" height="2" />
    <rect fill="#0b0618" x="6" y="14" width="4" height="1" />
    <rect fill="#d9e8d7" x="15" y="6" width="1" height="4" />
    <rect fill="#215a5a" x="8" y="13" width="1" height="1" />
    <rect fill="#76a695" x="6" y="15" width="4" height="1" />
    <rect fill="#0b0618" x="14" y="8" width="1" height="2" />
    <rect fill="#76a695" x="13" y="9" width="1" height="1" />
    <rect fill="#76a695" x="12" y="10" width="1" height="1" />
    <rect fill="#112f3a" x="9" y="13" width="1" height="1" />
    <rect fill="#112f3a" x="13" y="10" width="1" height="1" />
    <rect fill="#387a5b" x="12" y="11" width="1" height="1" />
    <rect fill="#215a5a" x="11" y="12" width="1" height="1" />
    <rect fill="#0b0618" x="10" y="13" width="2" height="1" />
    <rect fill="#76a695" x="14" y="10" width="1" height="1" />
    <rect fill="#0b0618" x="13" y="11" width="1" height="1" />
    <rect fill="#0b0618" x="12" y="12" width="1" height="1" />
    <rect fill="#76a695" x="10" y="14" width="2" height="1" />
    <path fill="#00000000" d="M 15,10 H 16 V 16 H 10 V 15 H 12 V 14 H 13 V 13 H 14 V 12 H 15 z"/>
    <rect fill="#d9e8d7" x="14" y="11" width="1" height="1" />
    <rect fill="#76a695" x="13" y="12" width="1" height="1" />
    <rect fill="#76a695" x="12" y="13" width="1" height="1" />
  </g>
</svg>
